<mxfile host="Electron" modified="2024-04-04T04:04:10.685Z" agent="Mozilla/5.0 (Windows NT 10.0; Win64; x64) AppleWebKit/537.36 (KHTML, like Gecko) draw.io/24.1.0 Chrome/120.0.6099.109 Electron/28.1.0 Safari/537.36" etag="cehMQrhaoKMYb7r6niZg" version="24.1.0" type="device">
  <diagram name="Page-1" id="VBdZo5n3kRzqauXqJbys">
    <mxGraphModel dx="1235" dy="731" grid="1" gridSize="10" guides="1" tooltips="1" connect="1" arrows="1" fold="1" page="1" pageScale="1" pageWidth="850" pageHeight="1100" math="0" shadow="0">
      <root>
        <mxCell id="0" />
        <mxCell id="1" parent="0" />
        <mxCell id="UoOwGr6izn4uIcQVVKH1-5" style="edgeStyle=orthogonalEdgeStyle;rounded=0;orthogonalLoop=1;jettySize=auto;html=1;" edge="1" parent="1" source="UoOwGr6izn4uIcQVVKH1-1" target="UoOwGr6izn4uIcQVVKH1-2">
          <mxGeometry relative="1" as="geometry" />
        </mxCell>
        <mxCell id="UoOwGr6izn4uIcQVVKH1-1" value="Hit by Attack" style="rounded=0;whiteSpace=wrap;html=1;" vertex="1" parent="1">
          <mxGeometry x="365" y="150" width="120" height="60" as="geometry" />
        </mxCell>
        <mxCell id="UoOwGr6izn4uIcQVVKH1-6" style="edgeStyle=orthogonalEdgeStyle;rounded=0;orthogonalLoop=1;jettySize=auto;html=1;entryX=0.5;entryY=0;entryDx=0;entryDy=0;" edge="1" parent="1" source="UoOwGr6izn4uIcQVVKH1-2" target="UoOwGr6izn4uIcQVVKH1-4">
          <mxGeometry relative="1" as="geometry" />
        </mxCell>
        <mxCell id="UoOwGr6izn4uIcQVVKH1-2" value="Hp minus" style="rounded=0;whiteSpace=wrap;html=1;" vertex="1" parent="1">
          <mxGeometry x="365" y="250" width="120" height="60" as="geometry" />
        </mxCell>
        <mxCell id="UoOwGr6izn4uIcQVVKH1-12" style="edgeStyle=orthogonalEdgeStyle;rounded=0;orthogonalLoop=1;jettySize=auto;html=1;" edge="1" parent="1" source="UoOwGr6izn4uIcQVVKH1-4" target="UoOwGr6izn4uIcQVVKH1-11">
          <mxGeometry relative="1" as="geometry" />
        </mxCell>
        <mxCell id="UoOwGr6izn4uIcQVVKH1-19" style="edgeStyle=orthogonalEdgeStyle;rounded=0;orthogonalLoop=1;jettySize=auto;html=1;entryX=1;entryY=0.5;entryDx=0;entryDy=0;" edge="1" parent="1" source="UoOwGr6izn4uIcQVVKH1-4" target="UoOwGr6izn4uIcQVVKH1-17">
          <mxGeometry relative="1" as="geometry">
            <Array as="points">
              <mxPoint x="505" y="390" />
              <mxPoint x="505" y="80" />
            </Array>
          </mxGeometry>
        </mxCell>
        <mxCell id="UoOwGr6izn4uIcQVVKH1-4" value="HP = 0" style="rhombus;whiteSpace=wrap;html=1;" vertex="1" parent="1">
          <mxGeometry x="385" y="350" width="80" height="80" as="geometry" />
        </mxCell>
        <mxCell id="UoOwGr6izn4uIcQVVKH1-11" value="Dead" style="rounded=0;whiteSpace=wrap;html=1;" vertex="1" parent="1">
          <mxGeometry x="365" y="470" width="120" height="60" as="geometry" />
        </mxCell>
        <mxCell id="UoOwGr6izn4uIcQVVKH1-15" value="No" style="text;html=1;align=center;verticalAlign=middle;resizable=0;points=[];autosize=1;strokeColor=none;fillColor=none;" vertex="1" parent="1">
          <mxGeometry x="465" y="350" width="40" height="30" as="geometry" />
        </mxCell>
        <mxCell id="UoOwGr6izn4uIcQVVKH1-16" value="Yes" style="text;html=1;align=center;verticalAlign=middle;resizable=0;points=[];autosize=1;strokeColor=none;fillColor=none;" vertex="1" parent="1">
          <mxGeometry x="430" y="428" width="40" height="30" as="geometry" />
        </mxCell>
        <mxCell id="UoOwGr6izn4uIcQVVKH1-20" style="edgeStyle=orthogonalEdgeStyle;rounded=0;orthogonalLoop=1;jettySize=auto;html=1;entryX=0.5;entryY=0;entryDx=0;entryDy=0;" edge="1" parent="1" source="UoOwGr6izn4uIcQVVKH1-17" target="UoOwGr6izn4uIcQVVKH1-1">
          <mxGeometry relative="1" as="geometry" />
        </mxCell>
        <mxCell id="UoOwGr6izn4uIcQVVKH1-17" value="Char Alive" style="rounded=0;whiteSpace=wrap;html=1;" vertex="1" parent="1">
          <mxGeometry x="365" y="50" width="120" height="60" as="geometry" />
        </mxCell>
      </root>
    </mxGraphModel>
  </diagram>
</mxfile>
